HIERARCHY
ROOT Hips
{
	OFFSET	0.00	0.00	0.00
	CHANNELS 6 Xposition Yposition Zposition Zrotation Xrotation Yrotation
	JOINT LeftUpLeg
	{
		OFFSET	 0.126116	-0.065224	 0.014019
		CHANNELS 3 Zrotation Xrotation Yrotation
		JOINT LeftLeg
		{
			OFFSET	 0.000000	 0.569914	 0.000000
			CHANNELS 3 Zrotation Xrotation Yrotation
			JOINT LeftFoot
			{
				OFFSET	 0.000000	 0.544423	 0.000000
				CHANNELS 3 Zrotation Xrotation Yrotation
				JOINT LeftToeBase
				{
					OFFSET	 0.000000	 0.207117	 0.000000
					CHANNELS 3 Zrotation Xrotation Yrotation
					End Site
					{
						OFFSET	 0.000000	 0.207117	 0.000000
					}
				}
			}
		}
	}
	JOINT RightUpLeg
	{
		OFFSET	-0.124023	-0.065224	 0.008373
		CHANNELS 3 Zrotation Xrotation Yrotation
		JOINT RightLeg
		{
			OFFSET	 0.000000	 0.570047	 0.000000
			CHANNELS 3 Zrotation Xrotation Yrotation
			JOINT RightFoot
			{
				OFFSET	 0.000000	 0.544354	 0.000000
				CHANNELS 3 Zrotation Xrotation Yrotation
				JOINT RightToeBase
				{
					OFFSET	 0.000000	 0.207540	 0.000000
					CHANNELS 3 Zrotation Xrotation Yrotation
					End Site
					{
						OFFSET	 0.000000	 0.207540	 0.000000
					}
				}
			}
		}
	}
	JOINT Spine
	{
		OFFSET	 0.000184	 0.117403	 0.007763
		CHANNELS 3 Zrotation Xrotation Yrotation
		JOINT Spine1
		{
			OFFSET	 0.000000	 0.137269	 0.000000
			CHANNELS 3 Zrotation Xrotation Yrotation
			JOINT Spine2
			{
				OFFSET	 0.000000	 0.156879	 0.000000
				CHANNELS 3 Zrotation Xrotation Yrotation
				JOINT LeftShoulder
				{
					OFFSET	 0.080501	 0.160143	 0.002496
					CHANNELS 3 Zrotation Xrotation Yrotation
					JOINT LeftArm
					{
						OFFSET	 0.000000	 0.164363	 0.000000
						CHANNELS 3 Zrotation Xrotation Yrotation
						JOINT LeftForeArm
						{
							OFFSET	 0.000000	 0.364576	 0.000000
							CHANNELS 3 Zrotation Xrotation Yrotation
							JOINT LeftHand
							{
								OFFSET	 0.000000	 0.360812	 0.000000
								CHANNELS 3 Zrotation Xrotation Yrotation
								JOINT LeftHandIndex1
								{
									OFFSET	 0.000000	 0.086006	 0.000000
									CHANNELS 3 Zrotation Xrotation Yrotation
									JOINT LeftHandIndex2
									{
										OFFSET	 0.000000	 0.047237	 0.000000
										CHANNELS 3 Zrotation Xrotation Yrotation
										JOINT LeftHandIndex3
										{
											OFFSET	-0.004284	 0.038165	 0.000551
											CHANNELS 3 Zrotation Xrotation Yrotation
											End Site
											{
												OFFSET	-0.004284	 0.038165	 0.000551
											}
										}
									}
								}
							}
						}
					}
				}
				JOINT Neck
				{
					OFFSET	 0.000000	 0.176489	 0.000000
					CHANNELS 3 Zrotation Xrotation Yrotation
					JOINT Head
					{
						OFFSET	 0.000000	 0.077941	 0.001747
						CHANNELS 3 Zrotation Xrotation Yrotation
						End Site
						{
							OFFSET	 0.000000	 0.077941	 0.001747
						}
					}
				}
				JOINT RightShoulder
				{
					OFFSET	-0.080363	 0.159706	-0.000306
					CHANNELS 3 Zrotation Xrotation Yrotation
					JOINT RightArm
					{
						OFFSET	 0.000000	 0.164196	 0.000000
						CHANNELS 3 Zrotation Xrotation Yrotation
						JOINT RightForeArm
						{
							OFFSET	 0.000000	 0.365611	 0.000000
							CHANNELS 3 Zrotation Xrotation Yrotation
							JOINT RightHand
							{
								OFFSET	 0.000000	 0.360648	 0.000000
								CHANNELS 3 Zrotation Xrotation Yrotation
								JOINT RightHandIndex1
								{
									OFFSET	 0.000000	 0.069977	 0.000000
									CHANNELS 3 Zrotation Xrotation Yrotation
									JOINT RightHandIndex2
									{
										OFFSET	 0.000000	 0.052305	 0.000000
										CHANNELS 3 Zrotation Xrotation Yrotation
										JOINT RightHandIndex3
										{
											OFFSET	 0.009002	 0.042196	 0.000782
											CHANNELS 3 Zrotation Xrotation Yrotation
											End Site
											{
												OFFSET	 0.009002	 0.042196	 0.000782
											}
										}
									}
								}
							}
						}
					}
				}
			}
		}
	}
}
MOTION
Frames:    4
Frame Time: 0.03333334
-0.047975	 1.234675	-1.250211	-2.370965	 1.241401	-174.188400	 166.508100	 6.807299	 13.527850	 4.218986	-28.859590	 6.144358	 6.788493	 76.848610	 0.857369	 1.517353	 31.303340	-2.814046	-175.056700	 27.942230	-12.626240	-5.804204	-53.260710	 6.358093	 14.496350	 70.980800	-10.001380	-1.670741	 33.163730	 2.887291	-1.483554	 8.693839	-12.682690	 4.815289	 3.141800	-5.906129	-4.936345	-3.265828	 14.194360	-121.357200	 7.486622	 94.066820	 16.568550	 46.030240	-1.100513	 21.120490	-1.068228	 0.115321	-26.478340	-44.258700	-37.428920	 4.632324	 18.883260	-1.659312	-5.863880	 21.494320	 2.376260	 5.332536	 4.363626	-0.168610	-0.169526	-5.014950	-0.139392	-2.144629	-2.695829	 0.607545	 118.415100	-0.050486	-90.808910	 0.552885	 55.847650	-5.949550	-5.118235	-0.201109	 0.049534	-26.332290	-13.273990	-49.838490	-2.408552	 25.772740	 1.320492	 15.799290	 44.766970	-11.758170	-8.529860	 23.769900	-1.212968
-0.047902	 1.234280	-1.257232	-2.379725	 1.111772	-174.065800	 166.488200	 6.637988	 13.668730	 4.216828	-29.019640	 6.213144	 7.631642	 77.074300	 0.076648	 1.525572	 31.405400	-2.817925	-175.306700	 28.955380	-12.289140	-5.844947	-53.257600	 6.416352	 16.750750	 72.009060	-11.649030	-1.674324	 33.206530	 2.889085	-1.452033	 8.286720	-12.577410	 4.767879	 4.078891	-5.944417	-4.830853	-4.640084	 13.919570	-121.354600	 7.588784	 94.117550	 15.197680	 45.916700	 0.193252	 22.675830	-1.142864	 0.145310	-26.395330	-46.534290	-37.626860	 4.645525	 18.926540	-1.666357	-5.863765	 21.532340	 2.380458	 5.334169	 4.401875	-0.167915	-0.171394	-5.023636	-0.130799	-2.117247	-2.887071	 0.525269	 118.400900	-0.110743	-90.780610	 2.871330	 55.973260	-7.659440	-5.651014	-0.221989	 0.047610	-27.710010	-13.981460	-49.598380	-2.360848	 25.416820	 1.295087	 15.710330	 44.419630	-11.620560	-8.531104	 23.412630	-1.189203
-0.047691	 1.233358	-1.269758	-2.408798	 0.914311	-173.886600	 166.474600	 6.243529	 13.791550	 4.244154	-29.176610	 6.399288	 9.053202	 77.504190	-1.239313	 1.537804	 31.556920	-2.823723	-175.747300	 30.685480	-11.886230	-5.752075	-53.120810	 6.688005	 20.367740	 73.158620	-14.326150	-1.679649	 33.270080	 2.891756	-1.412579	 7.792072	-12.351110	 4.654089	 5.162123	-5.928810	-4.649068	-6.223667	 13.383040	-121.350800	 7.740456	 94.192890	 13.938950	 45.597560	 1.486340	 24.738210	-1.240508	 0.188204	-26.192480	-49.536250	-37.330100	 4.665137	 18.990800	-1.676838	-5.863600	 21.588800	 2.386692	 5.336593	 4.458657	-0.166886	-0.174166	-5.036533	-0.118043	-2.075185	-3.104603	 0.374366	 118.380000	-0.200209	-90.738680	 7.453991	 55.913470	-11.153330	-7.984403	-0.313150	 0.036749	-28.472530	-15.163840	-49.005940	-2.290590	 24.888290	 1.258101	 15.581320	 43.903590	-11.419090	-8.532649	 22.882120	-1.154046
-0.047275	 1.231896	-1.288024	-2.466945	 0.662552	-173.665700	 166.492500	 5.544909	 13.927650	 4.251328	-29.217760	 6.614708	 11.040190	 78.115010	-3.075848	 1.552826	 31.742360	-2.830882	-176.423300	 33.022760	-11.291290	-5.640328	-52.581560	 6.997364	 24.839660	 73.950060	-17.613960	-1.686177	 33.347860	 2.895038	-1.381991	 7.265946	-12.013100	 4.469642	 6.271604	-5.849850	-4.401911	-7.824919	 12.602060	-121.346600	 7.926045	 94.285100	 13.281780	 45.037730	 2.357381	 26.895460	-1.340923	 0.236835	-25.614490	-52.813320	-36.309710	 4.689166	 19.069430	-1.689702	-5.863407	 21.657880	 2.394323	 5.339558	 4.528146	-0.165630	-0.177554	-5.052316	-0.102432	-2.022655	-3.320283	 0.161903	 118.354400	-0.309706	-90.687370	 12.248080	 55.667640	-14.757340	-10.035400	-0.392846	 0.024066	-29.443790	-16.756410	-48.075480	-2.205500	 24.241280	 1.214008	 15.428300	 43.271490	-11.177000	-8.534054	 22.232750	-1.111216
